HIERARCHY
ROOT Hips
{
     OFFSET 1.88212 96.90440 -13.34250
     CHANNELS 6 Xposition Yposition Zposition Zrotation Xrotation Yrotation
     JOINT Spine
     {
          OFFSET 0.00000 11.89050 0.00000
          CHANNELS 3 Zrotation Xrotation Yrotation
          JOINT Spine1
          {
               OFFSET -0.00000 25.65740 0.12766
               CHANNELS 3 Zrotation Xrotation Yrotation
               JOINT HEad
               {
                    OFFSET 0.00000 8.73416 0.01134
                    CHANNELS 3 Zrotation Xrotation Yrotation
                    End Site
                    {
                         OFFSET -0.29000 12.77420 2.51395
                    }
               }
               JOINT LeftShoulder1
               {
                    OFFSET 8.99000 -0.36225 -0.22000
                    CHANNELS 3 Zrotation Xrotation Yrotation
                    JOINT LeftArm
                    {
                         OFFSET 10.28270 -0.00338 0.32212
                         CHANNELS 3 Zrotation Xrotation Yrotation
                         JOINT LeftForeArm
                         {
                              OFFSET 32.76690 0.09914 -1.42434
                              CHANNELS 3 Zrotation Xrotation Yrotation
                              JOINT LeftHand
                              {
                                   OFFSET 27.56430 0.08536 1.02216
                                   CHANNELS 3 Zrotation Xrotation Yrotation
                                   End Site
                                   {
                                        OFFSET 16.74430 -0.60000 1.50291
                                   }
                              }
                         }
                    }
               }
               JOINT RightShoulder
               {
                    OFFSET -8.99000 -0.36225 -0.22000
                    CHANNELS 3 Zrotation Xrotation Yrotation
                    JOINT RightArm
                    {
                         OFFSET -10.28270 -0.00338 0.32212
                         CHANNELS 3 Zrotation Xrotation Yrotation
                         JOINT RightForeArm
                         {
                              OFFSET -32.89710 0.09914 -1.42434
                              CHANNELS 3 Zrotation Xrotation Yrotation
                              JOINT RightHand
                              {
                                   OFFSET -27.49210 0.08536 1.02216
                                   CHANNELS 3 Zrotation Xrotation Yrotation
                                   End Site
                                   {
                                        OFFSET -16.63120 -0.60000 1.50291
                                   }
                              }
                         }
                    }
               }
          }
     }
     JOINT LeftUpLeg
     {
          OFFSET 8.94580 -8.66707 0.10165
          CHANNELS 3 Zrotation Xrotation Yrotation
          JOINT LeftLeg
          {
               OFFSET 0.00000 -44.42270 1.37270
               CHANNELS 3 Zrotation Xrotation Yrotation
               JOINT LeftFoot
               {
                    OFFSET -0.25355 -42.09240 -1.46059
                    CHANNELS 3 Zrotation Xrotation Yrotation
                    JOINT LeftToes
                    {
                         OFFSET -0.04000 -4.41509 8.49910
                         CHANNELS 3 Zrotation Xrotation Yrotation
                         End Site
                         {
                              OFFSET 0.08000 -0.04745 9.77979
                         }
                    }
               }
          }
     }
     JOINT RightUpLeg
     {
          OFFSET -8.94580 -8.66707 0.10165
          CHANNELS 3 Zrotation Xrotation Yrotation
          JOINT RightLeg
          {
               OFFSET 0.00000 -44.42270 1.37270
               CHANNELS 3 Zrotation Xrotation Yrotation
               JOINT RightFoot
               {
                    OFFSET 0.25355 -42.09240 -1.46059
                    CHANNELS 3 Zrotation Xrotation Yrotation
                    JOINT RightToes
                    {
                         OFFSET 0.04000 -4.41509 8.49910
                         CHANNELS 3 Zrotation Xrotation Yrotation
                         End Site
                         {
                              OFFSET -0.08000 -0.13745 9.77979
                         }
                    }
               }
          }
     }
}
MOTION
Frames: 20
Frame Time: 0.01667
-1.27162 46.05692 -122.26535 15.79959 -1.22909 -6.97572 -17.23601 33.73390 3.07241 -0.02541 0.03086 0.00844 -11.29076 -31.39553 37.50568 -8.81952 7.39547 5.78231 -186.48862 -64.40976 -154.48947 -56.67846 59.05713 -88.45429 7.90165 20.02815 -3.29194 -1.77877 8.10366 12.96330 71.42991 -14.15629 96.86550 24.60951 36.43745 93.07611 -0.74294 11.72885 3.61597 36.78160 -38.54556 1.97155 6.07064 65.30755 9.83334 -13.27210 -0.17987 -0.02310 -18.07168 -6.84964 -3.25776 -55.38911 -63.81241 -29.75573 -205.10867 51.35905 198.51534 1.13816 0.04619 -0.09258 -46.54668 -75.61675 -40.37644 
-4.25901 49.77989 -119.94910 16.36591 -1.30032 -7.48905 -18.37648 29.41192 5.01573 -0.10335 -0.01078 0.05852 -14.58887 -26.95546 39.17870 -13.28823 -1.01086 8.66260 -173.89574 -74.51194 -148.54660 -55.31464 58.66646 -89.05482 2.59164 9.86598 0.95728 -5.86086 0.30590 17.98836 74.98754 -16.24648 86.99960 23.89977 35.69055 93.13837 -4.84876 9.09075 -0.94348 36.74732 -33.36111 5.14787 0.31226 61.29491 16.07924 -26.37529 0.41282 -0.12914 -12.85693 4.70013 4.17197 -45.45998 -58.70851 -24.01153 -205.74973 56.08980 201.48753 -2.10478 0.11932 -0.10872 -14.22332 -90.00000 0.00000 
-7.18907 53.50291 -117.44812 16.39503 -0.93789 -5.80706 -18.99076 25.21024 5.94993 -0.10019 0.01034 0.05978 -16.47517 -22.15131 40.10839 -12.02941 2.88516 7.63381 -174.11938 -73.14320 -149.51817 -54.22971 58.59553 -89.13510 26.42374 20.98388 -10.80061 -4.18614 4.30188 16.66399 74.13086 -16.47179 88.06376 23.60428 35.31783 93.25134 -2.00682 9.82475 1.53981 36.42116 -30.21223 7.61176 -4.10959 58.02006 18.32631 -27.81164 0.13287 -0.05806 -3.47237 -2.31544 -1.98534 -38.95829 -51.71045 -22.70404 -205.51497 63.98721 206.69499 9.45597 -0.76853 0.17062 -33.47264 -90.00000 0.00000 
-10.18590 57.19629 -114.75942 15.85838 -0.27150 -2.30358 -19.38618 21.41556 6.23599 -0.08591 0.02998 0.05914 -17.11815 -17.10356 40.07455 -9.62589 6.69397 5.76797 -172.49327 -71.76086 -148.40300 -53.26268 58.67175 -89.00786 12.80636 12.38152 -8.57716 -0.98320 8.10885 14.37125 73.04898 -17.02556 88.52383 23.52370 35.16992 93.37284 -4.73623 8.48407 -0.91151 35.64636 -29.37034 9.36233 -11.90556 56.97363 21.97138 -32.99893 0.17710 -0.16329 -11.08009 -1.21857 3.58978 -33.83923 -44.10172 -23.97070 -204.55910 71.42878 211.82413 21.15061 -0.77870 0.46892 -4.53055 -78.34100 44.11225 
-13.41452 61.03957 -111.82195 14.65249 0.47094 2.73706 -19.48070 18.34588 6.22186 -0.05803 0.04417 0.06573 -16.85247 -11.97377 38.78161 -6.14120 10.03422 3.01375 -169.21457 -70.40213 -145.42302 -52.45807 58.54219 -88.74379 20.55862 17.32878 -7.99924 3.85126 11.35515 10.95026 71.47969 -17.88082 88.22816 23.39652 35.39032 93.97330 -3.64494 8.78605 1.32896 35.27612 -29.77326 10.84328 -16.76307 55.11510 21.59787 -30.22677 0.01342 0.02046 -17.27678 -9.22911 1.96570 -28.53311 -36.51472 -26.34336 -204.00403 78.99870 217.27435 33.10409 -0.70811 0.67499 -49.74373 -63.57127 5.50964 
-16.60912 64.68752 -108.85856 12.71105 1.04827 9.08439 -18.30030 16.02504 4.68903 0.02105 0.04016 -0.02512 -16.47225 -7.08327 37.40656 -2.97947 12.89517 0.27432 -165.75613 -68.98701 -142.14236 -51.66418 58.57037 -88.54008 12.21830 12.20454 -6.73363 8.54194 13.96858 7.41344 69.91622 -18.72716 87.49147 23.19732 35.84932 94.91541 -5.46350 7.99614 -0.09629 34.70715 -31.63703 11.75701 -25.76732 54.07568 23.77478 -30.06755 0.02879 0.00456 -21.96582 -10.11714 -3.45968 -22.65649 -29.55128 -29.42615 -342.05875 90.00000 360.00000 15.73259 0.87008 -0.64091 -27.27886 -53.18582 -0.81660 
-19.80780 68.11198 -105.94646 9.88026 1.21316 16.37341 -15.84238 14.45606 1.64595 0.02852 0.03711 -0.02765 -15.94936 -2.78868 36.02083 -0.12521 15.06267 -2.17842 -162.47224 -67.58478 -138.97795 -51.00114 58.45806 -88.35387 16.34407 15.13560 -5.94184 12.97049 15.76636 4.07550 68.42738 -19.46356 86.44994 22.86192 36.53806 96.20620 -5.09095 8.28804 1.28625 33.60746 -34.74671 11.94661 -37.14142 53.98592 27.66554 -30.02584 0.01829 -0.01085 -7.29546 -14.35794 -4.09958 -15.68007 -23.89974 -32.73059 -376.93918 84.60518 398.00366 -0.94767 1.11765 -0.22125 -8.37580 -40.23301 -7.51953 
-23.14661 71.34736 -103.09097 7.44439 1.01589 22.68336 -13.81928 13.14161 -0.91312 0.02870 0.03457 -0.02475 -15.37355 0.89182 34.64091 2.36206 16.65392 -4.12682 -159.27269 -66.17183 -135.79478 -50.37536 58.38461 -88.30748 11.15654 12.21510 -4.97125 16.87842 16.94253 1.32864 67.14604 -20.23002 85.23459 22.45514 37.30482 97.63715 -6.30755 7.64601 0.44256 32.28336 -36.94360 13.31915 -41.25335 54.48558 25.28966 -30.01649 0.00042 0.02634 -18.15114 -10.70634 -15.46429 -9.34788 -20.01831 -34.72609 -386.07233 75.58091 406.26096 -4.19388 0.07492 -0.12929 -14.80933 -27.36664 -15.65173 
-26.27512 74.22604 -100.48053 5.33381 0.58204 28.04101 -12.04628 12.07153 -2.99470 0.02604 0.03201 -0.02358 -14.77688 3.96821 33.24880 4.45511 17.74915 -5.78568 -156.74251 -64.86179 -133.30258 -49.89341 58.15143 -88.24969 13.34443 13.85596 -4.25770 20.13486 17.58551 -0.98508 66.17341 -20.78563 84.02906 21.98568 38.12281 99.06942 -6.17312 8.07002 1.11314 31.21964 -38.12585 15.97731 -35.16373 56.09171 14.50027 -30.02897 -0.00025 0.02551 -5.87074 -12.81417 -9.57418 -4.40251 -17.31945 -35.48100 -391.89087 66.49338 407.06543 -3.58120 -0.05721 -0.11994 -2.53021 -31.80514 -14.76475 
-29.13948 76.72849 -98.14244 3.51967 0.01195 32.46855 -10.42963 11.22843 -4.59495 0.02311 0.02965 -0.02230 -14.18821 6.45905 31.83729 6.11770 18.42160 -7.18171 -154.82408 -63.66673 -131.46411 -49.50356 57.89394 -88.18517 10.08609 12.04357 -3.53115 22.70151 17.82061 -2.81942 65.51852 -21.16479 82.94724 21.51588 38.88469 100.31614 -6.88626 7.85716 0.43908 30.21732 -38.58869 19.59825 -21.78327 56.44083 -2.56278 -30.01978 -0.00085 0.01667 -9.36261 -9.58224 -10.47877 -1.07463 -15.20755 -34.94923 -397.42691 58.25148 404.71497 -2.50379 -0.03111 -0.07929 -10.66553 -21.32901 -17.34343 
-31.98893 78.73188 -96.02290 1.91906 -0.66074 36.01249 -8.38100 11.76846 -5.42664 0.05023 0.12397 0.00866 -13.90711 7.20708 29.70293 6.94915 17.44413 -8.45336 -153.34740 -62.52757 -130.23741 -49.21301 57.55081 -88.10050 11.30226 13.13463 -3.07937 24.15736 16.45677 -4.04013 65.23566 -21.35154 82.09465 21.06338 39.58912 101.35505 -6.91040 8.18571 0.78819 29.01748 -38.72113 23.66936 -5.94065 53.78743 -21.39496 -30.01105 -0.00211 0.00986 8.73334 -5.01790 -5.78302 0.73932 -13.14745 -33.22350 -402.58316 50.29689 400.81271 -0.90047 -0.00364 -0.05429 -10.97743 -20.31858 -26.27251 
-34.75689 80.28111 -94.22917 0.48098 -1.38361 38.74993 -6.39878 12.24858 -5.88003 0.01403 0.01870 -0.02269 -13.54961 7.82784 27.81907 7.36104 16.64770 -9.41387 -152.36346 -61.50378 -129.66542 -48.91419 57.19900 -88.01087 9.32420 11.94055 -2.51499 25.13168 15.34356 -4.88058 65.24168 -21.36655 81.43885 20.64968 40.21970 102.17028 -7.20533 8.23419 0.30370 26.63210 -38.96740 27.14542 3.71293 48.80459 -33.96113 -18.98282 0.13732 -0.27520 -9.07859 -3.95131 -4.30083 1.22771 -10.73781 -30.40878 -407.05753 42.51517 395.78952 4.55101 0.18848 -0.15937 4.60572 -16.85648 -15.10653 
-37.56849 81.32132 -92.77455 -0.81007 -2.08543 40.77987 -4.57334 12.68897 -6.01638 0.01082 0.01030 -0.02290 -13.17688 8.08594 26.03360 7.33350 15.75360 -10.12971 -151.64362 -60.56656 -129.54803 -48.57109 56.77278 -87.88680 10.00854 12.45731 -2.21537 25.60079 14.20850 -5.36637 65.50806 -21.23090 80.97635 20.26876 40.78708 102.79119 -7.11164 8.56491 0.46092 23.52800 -39.48608 29.86645 12.72164 43.27777 -44.61111 -8.51881 0.10174 -0.18829 -0.66545 0.69757 -0.42769 0.58652 -7.79850 -26.60099 -410.02679 34.86829 389.31879 12.18564 0.25025 -0.40018 8.28344 -10.34577 -14.24942 
-40.74329 81.51464 -91.57257 -1.91227 -2.71501 42.22038 -3.04245 13.15592 -5.89053 0.00872 0.00785 -0.02117 -12.73882 8.10458 24.39386 6.73318 14.90038 -10.54216 -150.71979 -59.65105 -129.62903 -47.92874 56.35835 -87.86215 8.95936 11.87361 -1.79686 25.50271 13.20060 -5.50260 66.18787 -20.99076 80.70914 19.94966 41.32186 103.26425 -7.04835 8.58424 0.24323 20.43278 -40.65863 31.74250 21.24780 37.44758 -53.23891 0.99321 0.05361 -0.09749 -21.16336 -0.72801 -1.31267 -1.19770 -4.43072 -21.92790 -410.42566 29.21582 382.65549 21.70832 0.08605 -0.55067 11.25237 -4.57332 -12.28703 
-43.84064 81.16716 -90.70366 -2.79055 -3.22403 43.17834 -1.85527 13.68011 -5.57150 0.00621 0.00650 -0.01926 -12.26224 7.92719 22.90246 5.99304 14.04463 -10.74505 -149.77226 -58.72922 -129.73286 -47.02445 55.83858 -87.88903 9.27902 12.00867 -1.61069 25.09165 12.27293 -5.40132 67.03212 -20.67733 80.63200 19.76339 41.77494 103.55106 -6.97056 8.87411 0.32384 16.82043 -42.30312 32.10156 27.56601 33.66108 -58.54366 -7.76115 -0.03205 0.02154 -8.39212 -0.37961 0.48308 -3.31107 -1.15856 -16.42905 -406.56812 28.04135 374.21240 26.96267 0.01478 -0.22716 9.98741 -1.63412 -13.07010 
-46.83406 80.30682 -90.08917 -3.42080 -3.61289 43.74897 -0.99800 14.28417 -5.12279 0.00396 0.00534 -0.01729 -11.78970 7.60624 21.56055 5.23136 13.17415 -10.76232 -148.76299 -57.79570 -129.75328 -45.91454 55.23059 -87.92706 8.42999 11.51679 -1.36677 24.36625 11.42823 -5.11133 68.03262 -20.32205 80.78273 19.78444 42.09891 103.59344 -6.86654 8.97152 0.19890 13.22153 -44.26016 31.17415 33.88562 30.32169 -62.22952 -16.78726 -0.02755 -0.02515 -3.05025 -2.33880 0.13090 -6.19370 1.66504 -10.41878 -400.75934 26.31148 365.70163 32.17308 -0.09964 -0.19696 7.16526 -14.34904 -11.24541 
-49.94769 78.94638 -89.56425 -3.76329 -3.91142 43.97953 -0.46675 14.98954 -4.55342 0.00361 0.00328 -0.01555 -11.36909 7.21678 20.37632 4.40800 12.30062 -10.55017 -147.51949 -56.88656 -129.54353 -44.61816 54.58121 -88.03988 8.40040 11.54534 -1.22595 23.24967 10.67174 -4.69022 69.24223 -19.92979 81.17316 20.06836 42.27756 103.43004 -6.65156 9.17375 0.34979 10.39203 -46.42012 29.58771 40.32864 27.11397 -65.12225 -27.06467 0.01264 -0.08076 4.82970 -4.32155 0.21382 -10.09885 3.56538 -4.37320 -391.48315 26.35121 358.26486 30.47595 0.03955 0.02206 0.45276 -22.58113 -9.85135 
-52.84051 77.52532 -89.16646 -3.85871 -4.19317 43.91959 -0.15257 15.79688 -3.89724 0.00186 0.00247 -0.01413 -11.03832 6.80881 19.35828 3.63344 11.45765 -10.21368 -146.30879 -56.04955 -129.23518 -43.27833 53.89566 -88.16667 7.76488 11.00064 -0.97615 21.99613 9.99817 -4.22683 70.40353 -19.53155 81.77150 20.58909 42.29964 103.04186 -6.46576 9.35045 0.06767 8.28695 -48.42038 27.40963 46.09283 24.64069 -67.05116 -37.65015 0.05737 -0.09373 11.13295 -6.73777 -0.51500 -14.28857 3.96075 1.08610 -379.73181 28.03884 351.80655 27.61822 0.02086 -0.01178 -0.44983 -35.82690 -2.61436 
-55.50066 76.28841 -88.83018 -3.75624 -4.53807 43.61803 0.06095 16.70627 -3.19102 0.00078 0.00174 -0.01283 -10.83253 6.43088 18.51447 2.87738 10.66212 -9.78376 -145.18919 -55.35264 -128.84439 -42.00275 53.23266 -88.31174 7.55513 10.79929 -0.82269 20.69057 9.39726 -3.73509 71.41662 -19.15504 82.47589 21.26709 42.17804 102.49593 -6.25846 9.55145 -0.00739 6.87555 -49.97596 24.69380 49.91134 25.23306 -67.63083 -30.50953 -0.03798 0.05204 2.70617 -8.83221 -1.22899 -18.44756 2.89315 5.41541 -366.82065 30.55753 346.29474 22.55537 0.01245 -0.10438 -2.61828 -34.05655 -6.96416 
-58.08075 75.52176 -88.44305 -3.48403 -4.97362 43.09531 0.22467 17.69117 -2.44376 0.00153 -0.00022 -0.01198 -10.78554 6.14937 17.87264 2.16532 9.84224 -9.27132 -144.21330 -54.98471 -128.20862 -40.87693 52.69247 -88.56059 7.00897 10.24029 -0.42840 19.45857 8.77234 -3.24259 72.10157 -18.81441 83.04729 22.04686 41.89111 101.88272 -6.12548 9.70142 -0.42380 6.09815 -50.73948 21.50933 52.63667 26.25893 -67.13497 -23.31984 -0.02708 0.05679 -5.88430 -10.80394 -1.96995 -22.18350 0.81946 8.31984 -355.41446 33.13624 341.78537 18.80615 -0.01095 -0.08447 -6.64646 -55.33134 1.29991 
